<svg id="Filled_stroke_cut_Ex" data-name="Filled stroke cut Ex" xmlns="http://www.w3.org/2000/svg" viewBox="0 0 431.94 480"><defs><style>.cls-1{fill:#ffefed;}.cls-2{fill:#ff5363;}.cls-3{fill:#fef8f7;}.cls-4{fill:#92c3fc;}.cls-5{font-size:115.47px;font-family:carbono;}</style></defs><title>bplusgroup</title><path class="cls-1" d="M252,72H232V64a40,40,0,0,0-40-40H160a40,40,0,0,0-40,40v8H100a52,52,0,0,0-52,52V346.38A61.92,61.92,0,0,0,90.39,405.2L96,407.07V456h32V417.73l6.26,2.09a131.91,131.91,0,0,0,25.74,5.8V488h32V425.62a131.91,131.91,0,0,0,25.74-5.8l6.26-2.09V456h32V407.06l5.61-1.86A61.93,61.93,0,0,0,304,346.38V124a52,52,0,0,0-52-52Z" transform="translate(-40 -16)"/><path class="cls-2" d="M251.49,374.84l-43.87,14.62a100,100,0,0,1-63.24,0l-43.87-14.62A30,30,0,0,1,80,346.38V124a20,20,0,0,1,20-20H252a20,20,0,0,1,20,20V346.38A30,30,0,0,1,251.49,374.84Z" transform="translate(-40 -16)"/><path class="cls-3" d="M80,160H272V320H80Z" transform="translate(-40 -16)"/><path class="cls-4" d="M448,152.83c-21.33-22.44-55.9-22.44-77.22,0L344,181l-26.8-28.19c-21.32-22.44-55.9-22.44-77.21,0s-21.33,58.81,0,81.24L344,343.51,448,234.07c21.32-22.43,21.32-58.81,0-81.24Z" transform="translate(-40 -16)"/><path d="M56,124a44.05,44.05,0,0,1,44-44H252a44.18,44.18,0,0,1,43.87,40.61l15.95-1.22A60.25,60.25,0,0,0,252,64H240a48.05,48.05,0,0,0-48-48H160a48.05,48.05,0,0,0-48,48H100a60.07,60.07,0,0,0-60,60v60H56ZM160,32h32a32,32,0,0,1,32,32H128A32,32,0,0,1,160,32Z" transform="translate(-40 -16)"/><path d="M160,40h32V56H160Z" transform="translate(-40 -16)"/><path d="M215.33,215.53a3.41,3.41,0,0,0-3.4-3.41h-6.81v-6.8a3.41,3.41,0,0,0-3.4-3.41H188.1a3.41,3.41,0,0,0-3.4,3.41v6.8h-6.81a3.41,3.41,0,0,0-3.4,3.41v13.61a3.4,3.4,0,0,0,3.4,3.4h6.81v6.81a3.41,3.41,0,0,0,3.4,3.41h13.62a3.41,3.41,0,0,0,3.4-3.41v-6.81h6.81a3.4,3.4,0,0,0,3.4-3.4Zm-6.8,10.21h-6.81a3.4,3.4,0,0,0-3.4,3.4V236h-6.81v-6.81a3.41,3.41,0,0,0-3.41-3.4h-6.8v-6.81h6.8a3.41,3.41,0,0,0,3.41-3.4v-6.81h6.81v6.81a3.4,3.4,0,0,0,3.4,3.4h6.81Z" transform="translate(-40 -16)"/><path d="M453.81,147.31a60.72,60.72,0,0,0-88.82,0l-21,22.1-21-22.1A60.91,60.91,0,0,0,280,128v-4a28,28,0,0,0-28-28H100a28,28,0,0,0-28,28V346.38a38,38,0,0,0,26,36.05l43.87,14.62a108.68,108.68,0,0,0,68.3,0L254,382.43a38,38,0,0,0,26-36.05V287.79l56,58.92V478a2,2,0,0,1-2,2H250a2,2,0,0,1-2-2V464h8a8,8,0,0,0,8-8V412.83l.14-.05A69.89,69.89,0,0,0,312,346.38V336H296v10.38a53.92,53.92,0,0,1-36.92,51.22l-5.61,1.87a8,8,0,0,0-5.47,7.59V448H232V417.73a8,8,0,0,0-10.53-7.59l-6.26,2.09A124.44,124.44,0,0,1,191,417.68a8,8,0,0,0-7,7.94V480H168V425.62a8,8,0,0,0-7-7.94,124.44,124.44,0,0,1-24.18-5.45l-6.26-2.09A8,8,0,0,0,120,417.73V448H104V407.06a8,8,0,0,0-5.47-7.59l-5.6-1.86A53.93,53.93,0,0,1,56,346.38V200H40V346.38a69.91,69.91,0,0,0,47.86,66.41l.14,0V456a8,8,0,0,0,8,8h32a8,8,0,0,0,8-8h0V428.75a139.7,139.7,0,0,0,16,3.77V488a8,8,0,0,0,8,8h32a8,8,0,0,0,8-8V432.52a139.7,139.7,0,0,0,16-3.77V456a8,8,0,0,0,8,8h8v14a18,18,0,0,0,18,18h84a18,18,0,0,0,18-18V346.7l69.8-73.44-11.6-11L344,331.9,245.78,228.56c-18.4-19.36-18.4-50.86,0-70.22A44.71,44.71,0,0,1,309,155.9c.85.78,1.66,1.59,2.44,2.44l26.8,28.19a8,8,0,0,0,11.31.29,4,4,0,0,0,.29-.29l26.8-28.19a44.71,44.71,0,0,1,63.18-2.44c.85.78,1.66,1.59,2.44,2.44,18.4,19.36,18.4,50.86,0,70.22l-20.84,21.93,11.6,11,20.84-21.93c24.16-25.44,24.16-66.83,0-92.27ZM264,346.38a22,22,0,0,1-15,20.87l-43.87,14.62a92.61,92.61,0,0,1-58.18,0L103,367.25a22,22,0,0,1-15-20.87V328H264Zm-29.82-106.8L264,271v41H88V168H220.93c-9.53,23.75-5.11,52.26,13.25,71.58ZM264,129.78a61.57,61.57,0,0,0-29.82,17.53c-1.43,1.51-2.78,3.08-4,4.69H88V124a12,12,0,0,1,12-12H252a12,12,0,0,1,12,12Z" transform="translate(-40 -16)"/><path d="M368.57,229l-10.14,25.36-31.65-50.63a8,8,0,0,0-13.94.66L299.06,232H280v16h24a8,8,0,0,0,7.15-4.42l9.63-19.24,32.44,51.9A8,8,0,0,0,360,280c.24,0,.47,0,.71,0a8,8,0,0,0,6.72-5l14-35H416V224H376a8,8,0,0,0-7.43,5Z" transform="translate(-40 -16)"/><text class="cls-5" transform="translate(55.71 282.06)">B</text></svg>